<svg width="53" height="53" viewBox="0 0 53 53" fill="none" xmlns="http://www.w3.org/2000/svg">
<path d="M22.0833 28.7084C23.0317 29.9762 24.2416 31.0253 25.6311 31.7844C27.0206 32.5436 28.557 32.995 30.1363 33.1081C31.7156 33.2212 33.3007 32.9933 34.7842 32.44C36.2676 31.8866 37.6147 31.0206 38.7341 29.9009L45.3591 23.2759C47.3704 21.1934 48.4834 18.4042 48.4582 15.5091C48.4331 12.614 47.2718 9.84466 45.2246 7.79745C43.1774 5.75023 40.408 4.58899 37.5129 4.56383C34.6178 4.53868 31.8287 5.65161 29.7462 7.66294L25.9479 11.4392M30.9166 24.2917C29.9682 23.0238 28.7583 21.9747 27.3688 21.2156C25.9794 20.4565 24.4429 20.0051 22.8636 19.892C21.2843 19.7789 19.6992 20.0067 18.2157 20.5601C16.7323 21.1135 15.3852 21.9794 14.2658 23.0992L7.64079 29.7242C5.62946 31.8067 4.51652 34.5958 4.54168 37.4909C4.56683 40.386 5.72807 43.1554 7.77529 45.2026C9.8225 47.2498 12.5919 48.4111 15.487 48.4362C18.3821 48.4614 21.1712 47.3484 23.2537 45.3371L27.03 41.5609" stroke="#1E1E1E" stroke-width="4" stroke-linecap="round" stroke-linejoin="round"/>
</svg>
