<svg width="75" height="75" viewBox="0 0 75 75" fill="none" xmlns="http://www.w3.org/2000/svg">
<g clip-path="url(#clip0_257_48)">
<path d="M34.3769 25.0078L39.0615 20.3232C40.0868 19.2979 41.304 18.4845 42.6436 17.9296C43.9833 17.3747 45.4191 17.0891 46.8691 17.0891C48.3191 17.0891 49.7549 17.3747 51.0946 17.9296C52.4342 18.4845 53.6514 19.2979 54.6767 20.3232C55.7021 21.3485 56.5154 22.5657 57.0703 23.9053C57.6252 25.245 57.9108 26.6808 57.9108 28.1308C57.9108 29.5808 57.6252 31.0166 57.0703 32.3563C56.5154 33.6959 55.7021 34.9131 54.6767 35.9384L49.9922 40.623M40.623 49.9922L35.9384 54.6768C34.9131 55.7021 33.6959 56.5154 32.3562 57.0703C31.0166 57.6252 29.5808 57.9108 28.1308 57.9108C25.2023 57.9108 22.3939 56.7475 20.3231 54.6768C18.2524 52.6061 17.0891 49.7976 17.0891 46.8691C17.0891 43.9407 18.2524 41.1322 20.3231 39.0615L25.0077 34.3769M31.2538 43.7461L43.7461 31.2539" stroke="#1E1E1E" stroke-width="4" stroke-linecap="round" stroke-linejoin="round"/>
</g>
<defs>
<clipPath id="clip0_257_48">
<rect width="53" height="53" fill="white" transform="translate(0.0233154 37.5) rotate(-45)"/>
</clipPath>
</defs>
</svg>
